<?xml version="1.0" standalone="no"?>
<!DOCTYPE svg PUBLIC "-//W3C//DTD SVG 20010904//EN"
 "http://www.w3.org/TR/2001/REC-SVG-20010904/DTD/svg10.dtd">
<svg version="1.0" xmlns="http://www.w3.org/2000/svg"
 width="115.000000pt" height="40.000000pt" viewBox="0 0 115.000000 40.000000"
 preserveAspectRatio="xMidYMid meet">
<metadata>
Created by potrace 1.10, written by Peter Selinger 2001-2011
</metadata>
<g transform="translate(0.000000,40.000000) scale(0.100000,-0.100000)"
fill="#000000" stroke="none">
<path d="M215 310 c-3 -5 -22 -10 -41 -10 -20 0 -44 -5 -55 -11 -16 -8 -23 -7
-33 7 -9 12 -19 15 -32 9 -18 -8 -17 -9 4 -12 12 -3 22 -10 22 -17 0 -7 11
-40 24 -73 17 -43 21 -64 13 -72 -7 -7 -6 -15 3 -26 7 -8 8 -15 4 -15 -18 0
-38 47 -44 105 -6 59 -7 60 -19 30 -18 -43 -5 -90 33 -127 30 -29 40 -33 86
-32 50 0 53 2 81 44 16 24 29 54 29 67 0 35 -26 90 -48 104 -11 7 -18 19 -15
26 6 15 -3 18 -12 3z m33 -56 c11 -11 -1 -13 -68 -13 -68 0 -80 3 -79 17 0 11
3 12 6 5 3 -10 10 -10 24 -2 11 5 29 7 39 4 14 -5 20 -2 20 10 0 13 4 14 22 4
13 -7 29 -18 36 -25z m-16 -31 c-23 -2 -61 -2 -85 0 -23 2 -4 4 43 4 47 0 66
-2 42 -4z m33 -78 c-16 -32 -21 -35 -61 -37 -24 0 -49 -1 -56 -2 -6 -1 -13 5
-15 12 -4 9 12 12 55 12 l59 0 13 43 c8 25 15 35 17 25 3 -10 -3 -33 -12 -53z
m-108 23 c-3 -7 -5 -2 -5 12 0 14 2 19 5 13 2 -7 2 -19 0 -25z m43 12 c0 -11
-4 -20 -10 -20 -5 0 -10 9 -10 20 0 11 5 20 10 20 6 0 10 -9 10 -20z m30 0 c0
-11 -4 -20 -10 -20 -5 0 -10 9 -10 20 0 11 5 20 10 20 6 0 10 -9 10 -20z m-37
-97 c-7 -2 -19 -2 -25 0 -7 3 -2 5 12 5 14 0 19 -2 13 -5z"/>
<path d="M303 242 c-18 -11 -1 -29 27 -28 38 2 36 -27 -5 -65 -50 -48 -46 -59
23 -59 46 0 59 3 59 15 0 10 -11 15 -36 15 -29 1 -33 2 -18 11 17 10 47 59 47
78 0 31 -65 53 -97 33z"/>
<path d="M436 201 c-20 -27 -36 -54 -36 -60 0 -6 16 -11 35 -11 28 0 35 -4 35
-20 0 -13 7 -20 20 -20 13 0 20 7 20 20 0 11 5 20 10 20 6 0 10 7 10 16 0 8
-4 12 -10 9 -6 -4 -10 13 -10 44 0 44 -3 51 -19 51 -12 0 -34 -20 -55 -49z
m34 -21 c0 -23 -4 -30 -20 -30 -18 0 -18 1 -2 30 9 16 18 30 20 30 1 0 2 -13
2 -30z"/>
<path d="M530 235 c0 -10 11 -15 35 -15 19 0 35 -2 35 -4 0 -2 -16 -32 -34
-65 -34 -59 -34 -61 -13 -61 18 0 30 14 55 65 44 91 43 95 -23 95 -42 0 -55
-3 -55 -15z"/>
<path d="M648 167 c-3 -68 -1 -77 15 -77 13 0 17 8 17 35 0 32 2 35 30 35 20
0 30 5 30 15 0 10 -10 15 -30 15 -20 0 -30 5 -30 15 0 10 11 15 35 15 25 0 35
4 35 15 0 12 -10 15 -49 13 l-50 -3 -3 -78z"/>
<path d="M772 238 c-17 -17 -15 -65 4 -76 26 -14 54 -2 61 26 11 45 -34 81
-65 50z m43 -38 c0 -36 -29 -33 -33 3 -3 23 0 28 15 25 12 -2 18 -12 18 -28z"/>
<path d="M866 234 c-31 -31 -13 -74 31 -74 21 0 43 25 43 49 0 14 -29 41 -45
41 -7 0 -21 -7 -29 -16z m47 -16 c5 -15 -10 -48 -22 -48 -13 0 -21 27 -15 45
7 18 31 20 37 3z"/>
<path d="M950 205 c0 -43 1 -45 28 -45 34 0 52 16 52 47 0 24 -26 43 -59 43
-18 0 -21 -6 -21 -45z m58 -3 c2 -12 -1 -22 -7 -22 -6 0 -14 -1 -18 -2 -3 -2
-7 10 -7 25 -2 34 27 34 32 -1z"/>
<path d="M1051 236 c-9 -11 -8 -18 4 -30 9 -9 21 -16 26 -16 5 0 9 -5 9 -11 0
-7 -10 -9 -25 -5 -14 4 -25 2 -25 -4 0 -14 53 -13 68 2 14 14 -2 38 -24 38 -8
0 -14 5 -14 11 0 6 9 9 20 6 13 -3 20 0 20 9 0 18 -44 18 -59 0z"/>
<path d="M1033 143 c-20 -7 -16 -53 5 -53 13 0 14 2 3 9 -11 7 -11 9 0 14 11
4 11 6 -1 6 -13 1 -13 2 0 11 16 10 11 20 -7 13z"/>
<path d="M781 118 c-1 -21 4 -28 17 -28 11 0 13 3 6 8 -7 4 -14 16 -17 27 -4
15 -5 14 -6 -7z"/>
<path d="M832 115 c0 -16 2 -22 5 -12 2 9 2 23 0 30 -3 6 -5 -1 -5 -18z"/>
<path d="M861 113 c0 -25 1 -26 9 -8 12 27 12 35 0 35 -5 0 -10 -12 -9 -27z"/>
<path d="M889 119 c-6 -13 -7 -19 -1 -15 6 3 13 0 15 -6 3 -7 6 -1 6 15 1 32
-4 34 -20 6z"/>
<path d="M930 115 c0 -14 5 -25 10 -25 6 0 10 11 10 25 0 14 -4 25 -10 25 -5
0 -10 -11 -10 -25z"/>
<path d="M966 132 c7 -4 14 -16 16 -27 3 -17 5 -15 10 8 4 23 2 27 -16 27 -13
0 -16 -3 -10 -8z"/>
<path d="M1070 115 c0 -29 34 -36 44 -9 8 21 -1 34 -25 34 -14 0 -19 -7 -19
-25z m32 0 c0 -5 -5 -11 -11 -13 -6 -2 -11 4 -11 13 0 9 5 15 11 13 6 -2 11
-8 11 -13z"/>
<path d="M498 73 c117 -2 306 -2 420 0 114 1 18 2 -213 2 -231 0 -324 -1 -207
-2z"/>
</g>
</svg>
